<?xml version="1.0" encoding="utf-8"?>
<!-- Svg Vector Icons : http://www.onlinewebfonts.com/icon -->
<!DOCTYPE svg PUBLIC "-//W3C//DTD SVG 1.1//EN" "http://www.w3.org/Graphics/SVG/1.1/DTD/svg11.dtd">
<svg version="1.1" xmlns="http://www.w3.org/2000/svg" xmlns:xlink="http://www.w3.org/1999/xlink" x="0px" y="0px" viewBox="0 0 1000 1000" enable-background="new 0 0 1000 1000" xml:space="preserve">
<metadata> Svg Vector Icons : http://www.onlinewebfonts.com/icon </metadata>
<g><g transform="translate(0.000000,512.000000) scale(0.100000,-0.100000)"><path d="M1853.7,5004.5c-30.6-3.8-139.7-19.1-239.2-36.4c-759.7-130.1-1352.9-585.5-1483-1142.4c-42.1-181.8-42.1-7235,0-7416.7c128.2-541.5,688.9-981.6,1444.7-1132.8c652.5-130.1,1370.1-23,1903.9,287c306.2,176,593.2,520.5,660.2,792.2l23,89.9h1993.9h1991.9l874.5,876.4l876.4,874.5V1543v3344.8l-65.1,65.1l-65.1,65.1l-3930.3-1.9C3679.2,5014.1,1886.3,5008.4,1853.7,5004.5z M2418.2,4589.3c336.8-23,782.6-193.3,1025.6-392.3c405.7-331,436.3-788.4,78.5-1138.5c-614.2-602.8-1907.8-654.4-2636.8-107.2C636.7,3137,523.8,3339.8,523.8,3600c0,132,7.7,164.6,67,283.2c183.7,367.4,713.7,656.3,1301.2,711.8C2041.2,4608.5,2115.9,4608.5,2418.2,4589.3z M9494.3,1550.7l3.8-3057.8h-729c-623.8,0-738.6-3.8-792.2-30.6c-122.5-57.4-124.4-74.6-124.4-886v-729l-1831.2,3.8l-1833.1,5.7l-3.8,3440.5c-5.7,3825.1,3.8,3540-135.8,3811.7c-49.8,97.6-120.6,185.6-256.4,321.5l-187.5,185.6l2943-3.8l2941.1-5.7L9494.3,1550.7z M954.4,2425.1c229.6-112.9,430.5-176,708-223.9c317.6-53.6,820.9-42.1,1119.4,28.7c354,84.2,694.6,241.1,903.2,417.2l91.8,76.5L3773-391.5l-5.7-3115.2l-63.1-128.2c-107.2-218.1-308.1-394.2-608.5-535.8c-899.3-421-2192.9-135.8-2520.1,553l-61.2,130.1l-5.7,3103.7l-3.8,3103.7l137.8-105.2C719,2557.2,860.6,2471.1,954.4,2425.1z M9192-1933.8c0-1.9-206.6-210.5-459.2-463.1l-459.2-459.2v465v463.1h459.2C8985.4-1928.1,9192-1930,9192-1933.8z"/><path d="M1869,4166.4c-218.1-59.3-388.4-179.9-472.6-332.9c-225.8-417.1,153.1-851.5,744.4-851.5c466.9,1.9,813.2,262.1,813.2,612.3c0,262.1-210.5,486-541.5,574.1C2286.2,4202.8,1999.2,4200.9,1869,4166.4z M2335.9,3764.6c109.1-32.5,216.2-120.5,216.2-176c0-44-59.3-101.4-153.1-151.2c-105.2-57.4-399.9-51.7-522.4,9.6c-49.8,24.9-105.2,65.1-122.5,91.9c-28.7,42.1-28.7,49.7,7.7,97.6C1865.2,3774.2,2114,3829.7,2335.9,3764.6z"/></g></g>
</svg>